<svg width="102" height="42" viewBox="0 0 102 42" fill="none" xmlns="http://www.w3.org/2000/svg">
<path opacity="0.2" fill-rule="evenodd" clip-rule="evenodd" d="M0 5C0 2.23858 2.23858 0 5 0H97C99.7614 0 102 2.23858 102 5C102 7.76142 99.7614 10 97 10H5C2.23858 10 0 7.76142 0 5ZM0 21C0 18.2386 2.23858 16 5 16H74C76.7614 16 79 18.2386 79 21C79 23.7614 76.7614 26 74 26H5C2.23858 26 0 23.7614 0 21ZM5 32C2.23858 32 0 34.2386 0 37C0 39.7614 2.23858 42 5 42H74C76.7614 42 79 39.7614 79 37C79 34.2386 76.7614 32 74 32H5Z" fill="white"/>
</svg>
